<?xml version="1.0" standalone="no"?>
<!DOCTYPE svg PUBLIC "-//W3C//DTD SVG 20010904//EN"
 "http://www.w3.org/TR/2001/REC-SVG-20010904/DTD/svg10.dtd">
<svg version="1.0" xmlns="http://www.w3.org/2000/svg"
 width="1280.000000pt" height="1280.000000pt" viewBox="0 0 1280.000000 1280.000000"
 preserveAspectRatio="xMidYMid meet">

<g transform="translate(0.000000,1280.000000) scale(0.100000,-0.100000)"
fill="#000000" stroke="none">
<path d="M5935 11283 c-557 -18 -1274 -172 -1628 -349 -147 -74 -292 -200
-333 -288 -108 -238 7 -1137 216 -1688 42 -110 46 -128 29 -128 -6 0 -56 -18
-112 -40 -262 -102 -537 -311 -616 -469 -16 -31 -35 -62 -43 -68 -7 -6 -69
-27 -137 -47 -68 -21 -214 -71 -325 -112 -212 -80 -296 -104 -362 -104 -103 0
-212 -100 -299 -275 -63 -128 -78 -199 -78 -380 -1 -147 7 -204 47 -375 9 -36
16 -85 16 -110 0 -69 19 -122 55 -156 32 -30 192 -90 373 -140 34 -9 62 -21
62 -26 0 -20 -16 -23 -530 -108 -205 -34 -260 -61 -260 -127 0 -28 6 -37 31
-51 68 -38 77 -49 72 -90 -3 -23 3 -74 15 -123 12 -46 24 -113 28 -149 3 -36
17 -114 31 -175 38 -177 44 -244 40 -472 l-3 -216 -55 -24 c-73 -33 -99 -59
-99 -101 0 -40 36 -78 117 -124 53 -30 69 -45 60 -54 -6 -7 -90 -26 -257 -59
-74 -15 -146 -33 -161 -40 -90 -47 -212 -278 -249 -475 -42 -217 -52 -473 -25
-640 34 -210 109 -387 199 -466 77 -68 243 -144 521 -238 830 -280 1535 -563
2700 -1083 209 -94 411 -169 508 -189 90 -19 209 -2 417 61 244 74 486 138
750 199 298 69 463 114 1490 407 1545 442 1701 485 2205 610 427 106 517 130
650 176 192 67 265 123 265 204 0 46 -18 63 -133 119 -109 53 -121 71 -136
200 -6 47 -17 139 -26 205 -24 188 -19 520 11 666 7 37 40 64 108 90 76 28
152 100 162 153 23 125 -40 178 -266 226 -52 11 -98 24 -103 29 -6 6 0 36 15
78 73 196 111 516 89 744 -25 259 -64 410 -136 525 -85 136 -106 150 -183 123
-28 -9 -40 -7 -94 20 -56 27 -211 74 -466 141 -45 12 -84 25 -86 29 -3 4 21
22 52 40 100 59 117 84 91 133 -12 22 -93 61 -164 79 -50 13 -50 13 -30 49 19
33 19 80 -1 108 -12 17 -14 35 -9 68 5 39 3 49 -20 76 -24 29 -26 37 -19 78
13 78 10 115 -14 145 -25 32 -28 59 -8 106 10 24 11 40 4 61 -13 38 20 117 73
175 43 47 51 89 21 116 -31 28 -215 105 -313 130 -52 14 -145 37 -208 52 -158
37 -554 155 -567 169 -6 6 -16 48 -22 93 -29 214 -170 400 -379 503 -35 17
-63 37 -63 44 0 6 21 32 46 56 126 123 338 422 394 556 97 234 91 425 -18 569
-79 104 -189 162 -329 174 -45 3 -85 10 -89 13 -4 4 1 54 10 112 9 58 16 163
16 233 0 126 -1 130 -35 201 -52 110 -138 189 -279 257 -206 100 -461 175
-852 250 -531 102 -832 126 -1369 108z m730 -68 c455 -48 939 -141 1240 -240
344 -112 520 -271 520 -470 -1 -54 -6 -80 -24 -115 -30 -57 -116 -147 -197
-206 -35 -26 -64 -53 -64 -60 0 -7 -6 -11 -13 -8 -7 2 -56 -15 -108 -40 -117
-55 -196 -81 -424 -139 -272 -69 -539 -119 -810 -151 -204 -25 -1082 -26
-1265 -3 -509 66 -938 197 -1190 363 -102 67 -213 166 -249 223 -64 99 -79
213 -38 286 31 55 166 161 284 222 381 199 943 324 1608 357 148 7 587 -4 730
-19z m-2631 -898 c87 -123 204 -212 422 -321 237 -119 554 -208 934 -262 148
-21 939 -31 1171 -15 197 13 538 55 662 81 264 54 697 184 820 246 72 37 186
112 233 153 76 66 125 103 130 98 6 -5 -11 -135 -22 -168 -3 -10 -32 -26 -73
-39 -79 -25 -156 -80 -183 -130 -25 -47 -24 -110 3 -144 21 -27 23 -27 95 -21
l73 7 -20 -72 c-67 -244 -328 -908 -372 -947 -12 -10 -48 -35 -81 -54 -32 -19
-84 -62 -115 -95 -101 -107 -141 -203 -141 -335 l0 -78 -51 -61 c-190 -229
-656 -459 -1014 -501 -135 -15 -537 -16 -655 0 -281 37 -533 120 -750 249
-348 204 -664 595 -840 1037 -95 241 -196 648 -239 965 -20 150 -45 470 -37
470 2 0 25 -29 50 -63z m4608 -296 c125 -48 214 -152 244 -287 15 -69 15 -82
0 -171 -9 -53 -32 -135 -51 -182 -140 -343 -582 -800 -992 -1028 -141 -78
-164 -87 -193 -78 -25 8 -27 59 -4 136 38 127 80 177 232 276 156 101 245 192
368 379 172 258 230 406 222 558 -5 91 -39 173 -83 202 -39 25 -96 32 -144 18
-35 -10 -44 -10 -56 3 -21 20 -19 41 8 88 17 30 38 48 87 72 79 40 92 42 210
38 68 -2 111 -9 152 -24z m-250 -292 c15 -23 30 -61 34 -85 22 -152 -108 -440
-304 -671 -44 -53 -62 -64 -62 -40 0 6 45 135 100 286 55 151 118 331 140 400
23 69 43 132 45 139 7 21 20 13 47 -29z m-4132 -939 c0 -6 -31 -25 -70 -43
-73 -34 -82 -48 -34 -58 28 -5 26 -7 -38 -37 -117 -54 -206 -119 -340 -249
-96 -92 -121 -142 -126 -244 -7 -142 45 -250 192 -395 136 -134 314 -228 612
-323 610 -193 1140 -293 1549 -289 188 1 182 4 -50 27 -545 52 -850 110 -1357
257 -220 63 -324 102 -464 172 -261 131 -433 332 -442 519 -4 61 0 80 22 128
57 125 268 293 547 436 l37 19 42 -67 c39 -61 42 -69 35 -112 -11 -68 -11 -86
0 -89 6 -2 15 15 20 38 l11 41 27 -29 c16 -16 35 -51 43 -78 8 -26 20 -52 27
-56 9 -6 9 -8 0 -8 -8 0 -13 -13 -13 -30 0 -27 -3 -30 -33 -30 -37 0 -57 15
-57 42 0 14 8 18 42 18 51 0 45 10 -8 13 -32 2 -40 7 -42 25 -2 12 -10 22 -18
22 -13 0 -14 -10 -9 -55 l7 -55 -66 0 c-37 0 -66 -4 -66 -10 0 -5 17 -10 39
-10 79 0 98 -9 120 -56 35 -74 31 -84 -36 -85 -44 -1 -52 -3 -33 -9 14 -4 44
-8 67 -9 39 -1 45 -5 69 -43 67 -107 98 -148 169 -222 41 -43 75 -75 75 -70
-1 5 -28 43 -60 84 l-59 75 31 3 c46 5 80 -13 129 -70 86 -101 249 -245 249
-221 0 4 -23 31 -52 60 -28 29 -50 54 -47 57 2 2 27 0 56 -6 39 -8 66 -22 110
-60 32 -27 72 -56 88 -65 17 -8 38 -22 48 -31 10 -9 17 -10 17 -4 0 6 -8 15
-17 21 -32 18 -6 22 60 11 50 -9 64 -15 60 -26 -6 -17 19 -19 48 -4 22 12 172
-12 195 -31 7 -6 18 -8 23 -4 6 3 49 0 96 -6 l85 -12 -16 -24 c-22 -34 -14
-37 20 -8 34 29 21 29 171 6 65 -10 125 -16 132 -14 7 3 23 -1 36 -10 33 -21
84 -11 91 19 4 13 12 24 20 24 7 0 19 7 26 15 9 11 35 15 103 15 l90 0 -22
-24 c-12 -13 -43 -30 -69 -37 -25 -7 -41 -14 -34 -17 7 -2 12 -12 12 -23 0
-23 8 -24 32 -2 15 13 51 18 186 24 170 8 300 22 522 59 69 11 128 20 133 20
4 0 7 4 7 9 0 6 -15 11 -32 13 -30 3 -25 7 67 53 137 69 241 138 296 197 l47
50 112 18 c62 11 115 22 119 26 3 4 -36 3 -86 0 -64 -5 -93 -4 -93 3 0 6 4 11
9 11 5 0 19 16 32 35 13 19 29 35 34 35 6 1 19 15 30 32 13 21 30 33 49 35 17
2 37 8 45 13 12 7 8 9 -16 10 -39 0 -43 20 -11 50 l22 20 -45 0 c-25 0 -50 5
-55 10 -8 8 -15 6 -24 -5 -13 -16 -46 -20 -54 -7 -6 9 53 47 61 39 2 -3 12 1
21 10 10 8 58 37 107 65 99 55 247 152 312 205 l43 34 70 -56 c85 -68 135
-132 155 -198 19 -64 19 -88 0 -162 -23 -87 -68 -157 -170 -259 -164 -166
-349 -274 -651 -380 -95 -34 -485 -149 -589 -175 -53 -13 -83 -31 -51 -31 50
0 444 112 730 208 206 68 454 213 578 335 77 75 160 197 183 268 25 75 17 179
-20 256 -32 66 -122 160 -179 187 l-38 18 28 29 c19 20 38 29 59 29 47 0 128
-45 180 -101 54 -58 86 -125 111 -231 17 -75 17 -79 -3 -155 -11 -43 -24 -88
-28 -100 -4 -13 -3 -23 1 -23 5 0 22 31 38 68 29 67 29 67 18 182 -17 198 -73
293 -217 366 l-74 39 21 22 c29 31 63 29 126 -8 43 -24 52 -34 47 -50 -9 -26
21 -71 89 -139 49 -47 56 -59 56 -93 0 -40 21 -49 28 -13 8 37 -12 72 -79 141
-67 70 -82 95 -56 95 21 0 110 -79 154 -139 50 -66 100 -180 116 -262 15 -81
0 -148 -61 -291 -104 -243 -214 -353 -522 -526 -232 -129 -440 -217 -680 -286
-570 -163 -1301 -220 -1870 -146 -337 45 -682 115 -980 201 -591 169 -900 336
-1038 561 -99 161 -172 357 -172 459 0 92 33 153 139 260 103 104 225 190 376
267 162 81 235 107 235 82z m30 -55 c0 -8 -8 -15 -18 -15 -10 0 -22 -4 -27 -9
-6 -5 -21 -12 -35 -15 -23 -7 -22 -4 10 23 38 33 70 40 70 16z m280 -425 c9
-18 8 -20 -15 -20 -14 0 -25 2 -25 4 0 2 -3 11 -6 20 -9 24 33 20 46 -4z m-49
-87 c11 -27 24 -56 29 -65 15 -27 13 -28 -36 -28 -43 0 -46 2 -61 38 -22 53
-32 90 -25 96 3 3 21 6 39 6 31 0 36 -4 54 -47z m142 -22 c32 -33 57 -64 57
-70 0 -16 -76 -13 -109 4 -26 13 -50 50 -66 103 -6 20 -3 22 28 22 28 0 43
-10 90 -59z m3107 -51 c0 -20 -27 -40 -55 -40 -13 0 -14 4 -4 23 21 40 59 51
59 17z m-90 -9 c0 -14 -41 -41 -62 -41 -26 0 -33 21 -13 37 21 15 75 18 75 4z
m-3062 -99 c50 -71 47 -89 -13 -78 -36 7 -74 48 -111 119 l-15 28 48 -3 c46
-3 49 -5 91 -66z m95 51 c26 -4 42 -13 48 -27 5 -12 20 -39 33 -61 13 -22 22
-43 20 -46 -2 -4 -25 -3 -51 2 -50 9 -87 41 -126 108 l-18 31 28 0 c15 0 45
-3 66 -7z m3007 -19 c0 -13 -30 -34 -49 -34 -23 0 -29 25 -8 33 17 7 57 8 57
1z m-2855 -61 c41 -32 74 -61 74 -66 1 -4 -18 -4 -41 -1 -54 9 -74 29 -116
117 -8 17 14 4 83 -50z m2750 47 c6 -10 -72 -37 -81 -27 -4 4 -1 13 6 22 14
17 65 21 75 5z m35 -59 c0 -5 -16 -23 -35 -40 -24 -21 -46 -31 -68 -31 l-32 1
42 39 c39 37 93 55 93 31z m-145 -40 c-39 -38 -115 -64 -115 -39 0 25 84 77
125 78 l30 0 -40 -39z m-2597 -97 c34 -37 62 -68 62 -70 0 -8 -56 -4 -90 6
-35 10 -120 93 -120 117 0 9 15 13 43 13 41 0 47 -4 105 -66z m129 24 c27 -14
93 -51 148 -82 l100 -56 -110 7 c-60 3 -121 12 -135 20 -14 7 -30 13 -36 13
-14 0 -114 107 -114 122 0 18 97 3 147 -24z m2494 -7 c-14 -26 -78 -80 -108
-92 -13 -5 -41 -9 -61 -8 l-37 0 30 22 c16 12 42 35 57 50 23 24 59 37 121 46
4 1 3 -7 -2 -18z m-141 -10 c0 -27 -154 -111 -205 -111 -66 0 -59 16 27 62 46
25 92 48 103 51 34 8 75 7 75 -2z m-2036 -166 c49 -8 91 -17 95 -20 11 -12
-33 -35 -66 -35 -19 0 -65 5 -103 11 -55 9 -73 9 -85 -1 -12 -10 -24 -6 -70
30 -30 23 -55 46 -55 50 0 7 93 -5 284 -35z m1986 31 c-39 -36 -108 -64 -173
-68 -37 -2 -67 -1 -67 2 0 6 71 39 140 66 19 7 53 13 75 14 34 0 37 -2 25 -14z
m-180 -3 c0 -5 -32 -23 -71 -42 -58 -27 -86 -34 -157 -38 -48 -3 -85 -3 -82 0
8 9 160 67 199 76 46 11 111 13 111 4z m-1567 -79 c87 -29 48 -50 -60 -33 -40
6 -73 14 -73 17 0 12 37 31 61 32 14 0 46 -7 72 -16z m1573 -19 c-11 -8 -25
-15 -32 -15 -6 0 -17 -6 -23 -14 -15 -18 -39 -22 -268 -46 -125 -14 -199 -18
-205 -12 -7 7 -2 12 11 17 12 3 21 10 21 15 0 15 69 28 180 35 58 3 141 11
185 18 44 7 96 14 115 15 33 2 34 1 16 -13z m-1369 -27 c91 -23 9 -38 -86 -16
-41 9 -48 14 -39 25 11 14 44 12 125 -9z m231 -27 c25 -14 -7 -26 -68 -24 -64
1 -114 18 -104 34 7 13 146 4 172 -10z m616 4 c-4 -28 -57 -49 -127 -53 l-72
-4 25 26 c26 27 90 46 145 43 17 -1 29 -6 29 -12z m-414 -4 c0 -5 -12 -19 -26
-30 -30 -23 -103 -28 -149 -11 -22 8 -25 13 -15 25 13 15 45 21 133 23 31 1
57 -2 57 -7z m3620 -99 c0 -11 -202 -92 -213 -85 -13 8 -6 12 95 54 95 39 118
45 118 31z m0 -67 c0 -39 -22 -62 -73 -75 -29 -7 -131 -38 -227 -68 -96 -30
-186 -56 -200 -59 -14 -3 -37 -13 -50 -24 -25 -19 -25 -19 -3 -19 13 0 51 9
85 20 272 84 391 120 394 117 5 -5 -30 -22 -106 -51 -36 -13 -238 -93 -450
-176 -212 -84 -542 -212 -735 -285 -660 -251 -870 -333 -1009 -395 -76 -33
-140 -59 -143 -56 -3 2 -2 23 2 45 4 27 13 42 26 46 10 4 19 11 19 16 0 6 -5
7 -11 3 -7 -4 -9 2 -7 17 3 24 84 76 120 78 15 1 238 93 333 137 17 7 129 48
249 90 213 74 220 76 247 60 26 -15 31 -15 106 14 150 59 380 142 598 217 203
69 258 93 243 108 -3 3 -32 -3 -64 -14 -57 -19 -78 -20 -58 -2 5 4 119 52 254
105 135 54 259 104 275 112 24 11 142 46 178 53 4 0 7 -6 7 -14z m8 -112 c13
-20 19 -39 15 -43 -4 -4 -82 -35 -173 -68 -91 -34 -282 -104 -424 -157 -142
-53 -266 -95 -274 -93 -16 3 30 23 538 228 151 61 282 118 290 126 12 12 11
14 -15 14 -29 1 -29 1 -11 15 26 20 28 20 54 -22z m-647 -5 c-24 -10 -95 -37
-159 -59 -65 -23 -342 -129 -617 -236 -275 -107 -543 -211 -595 -230 -143 -52
-379 -133 -390 -133 -6 0 -10 11 -10 24 0 22 13 30 131 76 247 97 590 219
1139 405 168 57 355 121 415 143 107 39 171 46 86 10z m-5001 -28 c8 -5 11
-10 5 -10 -5 0 -17 5 -25 10 -8 5 -10 10 -5 10 6 0 17 -5 25 -10z m81 -35 c30
-14 43 -22 29 -19 -26 7 -100 43 -89 44 4 0 31 -11 60 -25z m4919 -9 c0 -2
-71 -32 -157 -66 -87 -33 -174 -68 -193 -77 -42 -20 -105 -29 -79 -11 23 16
390 156 412 157 9 1 17 -1 17 -3z m680 -4 c0 -14 -23 -32 -42 -32 -10 0 -18
-7 -18 -15 0 -9 8 -14 23 -12 16 1 22 -3 22 -18 0 -11 -10 -24 -22 -30 -13 -5
-23 -15 -23 -22 0 -16 12 -17 27 -2 6 6 16 8 22 5 21 -14 11 -35 -21 -44 -34
-9 -849 -342 -902 -368 -20 -9 -33 -11 -40 -4 -6 6 -3 12 10 16 20 7 672 285
739 314 22 10 51 22 65 25 41 12 90 37 90 46 0 16 -36 10 -81 -14 -24 -13 -62
-30 -84 -37 -47 -15 -880 -361 -1655 -688 -603 -253 -717 -299 -727 -289 -10
11 15 57 34 63 54 17 66 25 54 37 -9 9 -16 9 -31 -1 -30 -19 -40 -15 -40 17 0
34 32 77 63 86 12 4 99 40 192 80 290 126 731 296 1825 703 162 60 312 115
334 122 21 7 66 25 100 41 63 29 86 35 86 21z m-5510 -22 c8 -5 11 -10 5 -10
-5 0 -17 5 -25 10 -8 5 -10 10 -5 10 6 0 17 -5 25 -10z m55 -20 c3 -6 -1 -7
-9 -4 -18 7 -21 14 -7 14 6 0 13 -4 16 -10z m5479 -167 c-17 -27 -551 -267
-1244 -558 -320 -135 -481 -203 -690 -295 -255 -111 -557 -235 -637 -261 -68
-21 -99 -21 -77 1 23 23 312 153 834 375 146 62 434 186 640 275 501 216 741
319 944 402 93 38 181 75 195 83 31 16 51 4 35 -22z m-16 -70 c-2 -10 -33 -28
-80 -47 -42 -17 -80 -34 -84 -38 -11 -11 -34 -10 -34 2 0 5 35 26 78 45 42 20
84 40 92 45 23 14 32 12 28 -7z m2 -121 c0 -5 -8 -16 -17 -24 -30 -25 -505
-260 -512 -252 -7 8 -19 1 214 131 168 93 285 151 308 153 4 0 7 -4 7 -8z
m-285 -12 c-8 -12 -65 -42 -131 -68 -27 -11 -146 -66 -264 -122 -118 -56 -253
-119 -300 -140 -47 -21 -125 -57 -175 -80 -49 -23 -128 -59 -175 -80 -47 -21
-119 -54 -160 -73 -41 -19 -187 -86 -325 -150 -137 -63 -373 -174 -524 -246
-150 -72 -277 -129 -282 -126 -16 10 -22 96 -8 109 8 7 61 30 119 51 236 86
973 395 1703 714 191 84 352 149 357 146 6 -3 10 -1 10 5 0 6 28 24 63 40 63
30 103 38 92 20z m333 -83 c8 -9 -47 -42 -241 -141 -680 -347 -1216 -613
-1448 -719 -608 -277 -743 -326 -836 -301 -36 10 -27 20 40 44 65 23 192 85
447 219 341 179 622 310 986 459 281 115 516 222 769 350 201 102 258 119 283
89z m-428 -28 c-40 -33 -118 -70 -125 -59 -4 6 27 26 67 45 83 40 93 42 58 14z
m-622 -31 c-3 -7 -18 -17 -34 -23 -16 -5 -36 -14 -44 -20 -8 -5 -49 -24 -90
-41 -41 -17 -194 -83 -340 -147 -146 -63 -382 -165 -525 -227 -143 -62 -336
-148 -429 -191 -93 -44 -171 -79 -173 -79 -2 0 -3 17 -1 37 3 36 4 37 73 58
65 21 150 56 750 310 410 174 710 297 727 299 9 1 22 7 30 13 28 22 61 29 56
11z m-1288 -33 c0 -7 -203 -105 -208 -101 -2 3 1 13 7 24 12 22 201 94 201 77z
m1768 -7 c-10 -30 -498 -285 -753 -393 -280 -119 -534 -245 -964 -482 -66 -36
-220 -100 -274 -114 -42 -10 -50 -9 -67 6 -42 38 -28 49 205 148 72 30 267
119 435 197 365 170 258 120 885 410 286 132 524 240 528 240 5 0 7 -5 5 -12z
m-1218 -6 c0 -4 -28 -18 -62 -31 -62 -24 -666 -273 -740 -305 -36 -16 -38 -15
-38 2 0 20 21 30 325 155 125 52 484 185 503 186 6 1 12 -2 12 -7z m-5860
-506 c80 -35 169 -80 199 -100 29 -20 65 -39 80 -42 14 -4 109 -45 210 -91
101 -47 393 -179 650 -295 1191 -537 1223 -552 1261 -593 l25 -27 -60 27
c-166 76 -259 115 -272 115 -8 0 -21 7 -29 15 -19 19 -54 20 -54 1 0 -15 21
-26 50 -26 10 0 20 -4 22 -9 2 -5 77 -42 168 -81 91 -40 169 -75 173 -79 4 -4
5 -15 1 -24 -5 -14 -12 -13 -62 10 -32 14 -115 51 -187 83 -71 32 -303 136
-515 233 -212 96 -412 187 -445 202 -177 79 -266 120 -320 146 -33 16 -65 29
-71 29 -6 0 -24 6 -40 14 -16 8 -153 66 -304 129 -504 210 -614 261 -624 291
-6 14 -7 28 -3 32 3 3 50 -14 104 -39 480 -219 716 -327 758 -347 28 -12 74
-34 103 -47 37 -18 57 -22 64 -15 7 7 -5 18 -40 36 -103 52 -810 380 -907 421
-88 37 -100 45 -103 68 -2 18 1 27 10 27 8 0 79 -29 158 -64z m404 -387 c6 -5
19 -9 31 -9 12 0 30 -6 41 -14 18 -14 18 -15 1 -21 -9 -4 -23 -3 -30 3 -6 5
-41 22 -77 37 -36 15 -150 65 -255 112 -104 46 -200 89 -212 94 -13 4 -23 17
-23 28 0 16 38 1 258 -101 141 -65 261 -123 266 -129z m-392 112 c241 -113
869 -395 1543 -693 99 -44 239 -106 310 -139 72 -32 136 -59 143 -59 35 0 1
26 -95 71 -60 28 -135 64 -168 79 -225 106 -741 341 -1117 510 -109 48 -141
70 -103 70 38 0 899 -371 1500 -646 17 -7 116 -51 220 -97 l190 -85 3 -36 c3
-35 3 -36 -24 -26 -15 6 -29 8 -32 6 -8 -8 19 -36 34 -36 15 0 34 -30 34 -54
0 -25 -16 -20 -140 38 -162 77 -439 205 -477 222 -27 12 -33 12 -33 1 0 -7 26
-26 58 -41 136 -68 491 -234 535 -251 50 -19 72 -49 61 -80 -8 -20 -11 -19
-72 10 -61 29 -62 30 -62 9 0 -10 26 -27 70 -47 66 -29 70 -33 70 -63 l0 -33
-37 16 c-21 8 -64 28 -95 44 -32 15 -58 25 -58 22 0 -3 -6 0 -14 6 -10 9 -16
9 -21 1 -9 -14 -18 -9 110 -70 116 -55 125 -62 125 -97 0 -30 -16 -29 -86 2
-32 14 -59 23 -62 21 -12 -13 10 -33 58 -51 69 -27 90 -48 90 -90 0 -19 -2
-35 -5 -35 -3 0 -23 9 -45 20 -22 11 -47 20 -55 20 -32 0 -8 -25 43 -45 54
-21 68 -40 57 -76 -5 -16 -12 -19 -31 -15 -30 8 -34 -20 -4 -29 24 -8 28 -53
5 -61 -19 -8 -182 68 -780 361 -325 160 -608 297 -750 365 -55 26 -163 78
-240 115 -77 37 -198 94 -270 127 -71 33 -154 70 -183 84 -55 25 -72 29 -72
16 0 -4 24 -18 53 -31 28 -13 68 -34 87 -46 19 -11 186 -92 370 -180 525 -248
559 -265 845 -405 149 -72 309 -149 356 -170 47 -21 128 -60 180 -86 52 -26
162 -78 244 -115 142 -65 150 -70 153 -99 3 -24 -1 -30 -15 -30 -10 1 -157 73
-328 161 -911 469 -2067 1029 -2126 1029 -15 0 -16 5 -9 30 11 37 10 32 10 75
0 19 4 35 9 35 5 0 317 -152 692 -339 896 -444 1139 -561 1161 -561 6 0 19 -6
27 -13 22 -19 286 -137 305 -137 9 0 16 -4 16 -10 0 -5 7 -10 15 -10 8 0 29
-9 47 -20 39 -23 58 -25 58 -6 0 7 -15 19 -32 27 -32 12 -144 64 -317 147 -47
23 -89 38 -93 36 -4 -3 -8 -1 -8 4 0 5 -55 35 -122 67 -68 32 -463 227 -878
433 -415 205 -777 383 -805 394 -58 23 -75 35 -75 54 0 10 28 0 91 -31 49 -25
167 -79 262 -119 182 -78 567 -248 702 -311 288 -134 535 -251 770 -365 383
-186 405 -195 405 -171 0 9 -149 84 -765 386 -137 68 -389 183 -560 258 -170
74 -393 171 -495 215 -102 44 -223 98 -270 120 -47 21 -97 42 -112 46 -24 5
-28 12 -28 41 0 19 4 35 8 35 19 0 1120 -496 1636 -737 192 -90 292 -131 298
-125 11 11 -2 19 -127 80 -239 117 -647 305 -1180 544 -451 203 -572 255 -627
272 -11 3 -18 15 -18 30 l0 25 98 -41 c215 -89 438 -185 875 -377 252 -110
460 -201 462 -201 5 0 384 -171 505 -228 319 -150 336 -157 329 -131 -7 25
-518 267 -971 460 -117 50 -386 167 -598 259 -437 191 -649 280 -667 280 -22
0 -53 39 -53 65 0 14 2 25 6 25 3 0 114 -48 247 -106 133 -59 397 -173 587
-254 631 -270 898 -390 1334 -599 83 -39 156 -69 165 -66 24 9 4 21 -185 112
-526 251 -1118 517 -1499 675 -93 38 -237 99 -319 135 -82 36 -179 76 -215 90
-114 43 -129 52 -142 90 -6 19 -9 37 -6 39 6 6 130 -45 547 -226 594 -257 828
-360 1070 -469 134 -61 250 -111 258 -111 41 0 -19 34 -248 142 -585 275
-1461 656 -1584 689 -22 6 -44 16 -48 23 -11 16 -10 66 1 66 5 0 56 -22 113
-49z m153 -808 c50 -23 117 -53 150 -68 59 -27 143 -67 415 -195 74 -35 230
-112 345 -171 523 -265 1314 -659 1323 -659 6 0 14 -5 17 -10 10 -16 -5 -70
-20 -70 -7 0 -70 35 -141 78 -270 163 -554 315 -904 481 -524 249 -1018 477
-1096 506 -51 18 -107 41 -125 51 -19 10 -59 25 -89 34 -45 14 -58 24 -72 51
-9 19 -17 44 -18 55 0 21 2 21 63 -10 34 -17 103 -50 152 -73z m2315 -106 c0
-12 13 -34 29 -48 100 -87 126 -609 46 -914 -33 -123 -96 -198 -125 -146 -8
17 -3 44 29 138 49 143 63 225 63 363 0 136 -39 544 -58 613 -3 9 -1 17 5 17
6 0 11 -10 11 -23z m6160 -556 c0 -32 -21 -44 -95 -56 -22 -3 -157 -36 -300
-72 -274 -68 -388 -96 -600 -143 -71 -16 -161 -38 -200 -48 -98 -27 -329 -81
-680 -158 -238 -53 -236 -53 -232 -41 2 6 43 21 93 34 149 39 827 208 1029
257 105 25 287 68 405 96 202 48 424 110 515 143 59 21 65 20 65 -12z m-19
-94 c-5 -5 -125 -33 -267 -63 -143 -30 -267 -57 -276 -60 -10 -3 -18 -1 -18 4
0 6 69 27 153 47 83 19 202 47 262 62 61 14 117 29 125 34 17 9 34 -11 21 -24z
m-8905 -1 c32 -13 142 -61 244 -106 395 -174 946 -394 1410 -560 287 -103 740
-276 822 -314 32 -15 97 -40 145 -56 86 -29 124 -50 91 -50 -55 0 -1127 386
-1703 613 -408 160 -1060 439 -1083 462 -5 4 5 35 11 35 2 0 30 -11 63 -24z
m150 -155 c56 -26 112 -54 125 -63 41 -27 11 -33 -44 -9 -28 13 -117 44 -196
70 -80 26 -146 52 -148 57 -2 6 1 23 6 37 l10 26 73 -36 c40 -20 119 -57 174
-82z m8754 95 c0 -36 -23 -53 -82 -61 -29 -4 -89 -16 -132 -27 -61 -15 -830
-173 -1106 -228 -25 -5 -143 -29 -264 -55 -217 -46 -285 -53 -166 -18 63 19
81 39 32 37 -15 0 -106 -22 -202 -47 -205 -55 -375 -95 -900 -212 -410 -91
-544 -121 -686 -155 -212 -51 -666 -165 -869 -220 -121 -32 -283 -73 -360 -91
-145 -34 -166 -42 -149 -59 6 -6 81 9 209 41 198 49 271 68 1005 253 487 122
634 153 604 128 -5 -5 -65 -21 -134 -37 -69 -15 -375 -94 -680 -176 -305 -82
-616 -165 -690 -185 -74 -20 -164 -44 -200 -54 -36 -10 -126 -34 -200 -54 -74
-20 -227 -61 -340 -91 -113 -30 -211 -55 -217 -55 -15 0 -17 46 -3 55 5 3 101
29 212 56 238 58 268 67 268 80 0 15 -34 10 -172 -27 -200 -53 -280 -74 -290
-74 -14 0 2 42 25 68 11 12 29 22 40 22 30 0 282 63 502 125 246 70 934 239
1175 290 69 14 242 53 385 87 516 120 602 139 914 199 174 33 366 71 426 84
266 59 333 75 381 90 49 14 230 56 304 69 20 4 30 3 25 -2 -6 -5 -77 -26 -160
-47 -82 -21 -156 -42 -162 -48 -19 -14 -4 -30 21 -23 273 77 1028 255 1426
337 85 17 164 35 175 40 31 12 35 11 35 -15z m-20 -100 c0 -22 -5 -25 -47 -31
-139 -17 -225 -32 -503 -87 -168 -33 -465 -99 -660 -148 -195 -48 -407 -100
-470 -115 -542 -129 -1130 -283 -1885 -495 -697 -196 -1336 -363 -1722 -449
-236 -53 -266 -53 -240 -1 11 21 41 31 262 86 255 65 483 124 935 245 140 37
291 77 335 89 44 12 145 39 225 60 517 138 1501 384 1885 471 233 52 367 81
775 165 41 9 138 29 215 45 190 40 341 70 590 119 116 22 230 47 255 54 25 8
46 15 48 15 1 1 2 -10 2 -23z m-8799 -52 c221 -75 493 -179 824 -316 127 -52
251 -104 277 -114 27 -10 48 -22 48 -26 0 -12 -3 -11 -104 27 -52 19 -97 35
-100 35 -4 0 -64 22 -134 49 -70 27 -138 51 -152 53 -38 5 -31 -22 10 -38 19
-7 179 -68 355 -135 176 -66 487 -188 690 -269 370 -148 642 -250 663 -250 7
0 12 9 12 20 0 11 3 20 6 20 4 0 106 -36 228 -79 398 -142 537 -191 546 -191
6 0 10 7 10 16 0 21 -25 31 -475 192 -834 299 -1188 436 -1714 663 -24 11 -42
21 -39 24 3 3 72 -22 154 -56 297 -121 715 -273 1434 -521 617 -213 647 -222
670 -208 6 4 -29 23 -82 45 -91 38 -123 55 -101 55 6 0 30 -7 54 -16 24 -9 76
-18 114 -21 39 -3 73 -8 77 -12 4 -3 1 -30 -7 -59 -7 -30 -17 -82 -20 -118 -4
-35 -11 -64 -16 -64 -7 0 -501 192 -564 219 -11 5 -51 22 -90 39 -63 28 -152
62 -161 62 -2 0 -4 -4 -4 -10 0 -11 78 -52 135 -70 22 -7 54 -18 70 -26 185
-81 596 -244 615 -244 6 0 10 -32 10 -80 0 -44 -3 -80 -6 -80 -3 0 -49 14
-102 31 -545 175 -1163 400 -2192 799 -173 67 -323 123 -333 124 -9 1 -23 8
-29 14 -7 7 -21 12 -33 12 -12 0 -25 4 -30 9 -6 4 -104 45 -220 91 -115 45
-241 95 -280 110 -38 16 -116 45 -172 66 -103 37 -103 38 -103 71 0 35 6 39
42 23 24 -10 1072 -401 1308 -488 159 -59 349 -127 705 -252 143 -51 301 -107
350 -125 50 -18 142 -52 205 -75 63 -23 266 -100 450 -172 328 -128 400 -151
400 -131 0 12 -64 41 -195 88 -49 18 -236 90 -415 160 -317 124 -620 239 -670
255 -147 47 -761 266 -1175 420 -516 192 -675 250 -834 306 -85 30 -157 56
-159 59 -2 2 -1 16 2 31 6 22 11 25 34 21 42 -7 245 -71 503 -157 130 -44 244
-80 253 -80 41 0 7 21 -86 54 -57 19 -175 60 -263 91 -88 31 -216 72 -285 91
-68 19 -128 38 -133 43 -13 13 1 61 17 61 8 0 101 -30 207 -66z m8797 -45 c-2
-17 -10 -25 -28 -27 -58 -7 -251 -47 -470 -98 -129 -30 -318 -73 -420 -94
-245 -53 -375 -84 -895 -210 -306 -74 -461 -114 -765 -197 -129 -35 -359 -98
-510 -140 -335 -91 -790 -216 -1205 -329 -170 -47 -479 -128 -685 -181 -206
-52 -406 -106 -444 -119 -101 -35 -106 -34 -106 25 0 57 -12 51 145 81 561
110 1318 304 2404 616 163 47 604 164 981 259 377 95 818 207 980 248 170 44
397 93 535 117 132 23 292 51 355 64 63 12 119 19 123 15 5 -4 7 -17 5 -30z
m-8490 -5 c37 -15 74 -33 82 -42 13 -13 13 -14 0 -10 -57 21 -157 62 -164 69
-18 16 15 9 82 -17z m8492 -77 c0 -51 4 -49 -365 -147 -88 -23 -170 -49 -182
-56 -12 -8 -32 -14 -44 -14 -13 0 -36 -4 -53 -10 -17 -5 -177 -45 -356 -89
-179 -45 -428 -108 -555 -141 -126 -33 -324 -85 -440 -115 -115 -30 -268 -70
-340 -89 -244 -64 -440 -115 -740 -191 -764 -194 -867 -222 -1450 -385 -154
-43 -381 -106 -505 -140 -124 -33 -283 -79 -353 -101 -71 -22 -131 -39 -133
-36 -3 2 -7 34 -11 70 -6 63 -5 67 18 75 31 12 424 111 604 152 350 80 618
150 1120 293 579 166 639 182 1220 337 209 56 421 113 470 126 157 42 441 111
755 184 168 39 350 82 405 95 55 13 198 44 319 70 120 26 295 66 390 90 206
52 226 54 226 22z m5 -149 c3 -35 7 -90 8 -122 l2 -59 -50 -18 c-152 -53 -451
-116 -871 -183 -427 -69 -950 -196 -1779 -431 -550 -156 -615 -173 -1225 -321
-524 -127 -780 -187 -1135 -264 -154 -33 -314 -70 -356 -80 -43 -11 -82 -20
-87 -20 -11 0 -34 89 -26 101 2 3 21 9 42 13 22 3 149 35 283 70 134 36 321
85 414 109 94 25 339 90 545 146 1108 298 1180 317 1935 505 253 63 534 135
625 160 91 24 346 94 568 155 222 61 410 111 418 111 8 0 17 6 20 14 3 8 13
12 24 9 10 -3 33 2 51 11 18 9 42 16 54 16 12 0 25 3 29 8 4 4 17 8 29 8 23 2
429 113 436 120 2 2 12 4 22 4 14 0 19 -12 24 -62z m-8903 -7 c73 -27 248 -94
389 -150 140 -55 262 -101 269 -101 7 0 21 -6 29 -14 15 -13 270 -116 811
-328 535 -210 717 -275 1360 -488 l475 -158 8 -53 c4 -28 5 -55 2 -58 -3 -3
-50 9 -103 27 -104 34 -132 39 -132 22 0 -12 63 -41 163 -75 38 -12 72 -27 77
-31 12 -14 20 -74 10 -74 -5 0 -49 18 -97 41 -162 75 -1064 424 -1618 626
-143 52 -384 145 -535 208 -151 62 -428 174 -615 248 -311 123 -383 150 -572
217 -80 29 -91 41 -68 76 9 15 20 22 24 17 3 -5 65 -31 136 -57 72 -26 138
-51 147 -57 26 -14 48 -11 48 6 0 8 -12 18 -27 21 -16 4 -32 10 -38 14 -18 13
-199 80 -235 86 -19 4 -43 14 -52 22 -22 18 -24 62 -4 62 8 0 74 -22 148 -49z
m-203 -165 c2 -45 -6 -27 -12 29 -4 34 -3 42 3 25 4 -14 8 -38 9 -54z m226
-52 c83 -31 328 -128 545 -216 217 -88 544 -219 725 -292 182 -73 470 -184
640 -246 283 -103 1203 -452 1370 -520 54 -22 71 -34 78 -55 5 -14 7 -29 4
-32 -7 -6 -145 33 -317 89 -198 64 -1383 526 -2470 962 -360 145 -668 266
-685 270 -16 4 -38 15 -47 23 -21 18 -24 73 -5 73 6 0 80 -25 162 -56z m8903
-26 c-3 -19 -16 -24 -118 -45 -492 -100 -656 -139 -1515 -358 -71 -18 -247
-61 -390 -95 -373 -89 -1133 -278 -1770 -439 -623 -158 -732 -184 -1294 -311
-221 -50 -409 -89 -417 -86 -15 6 -19 42 -6 50 5 3 103 24 218 46 510 101
1017 216 1714 390 351 87 433 109 1200 315 820 221 1152 302 1490 364 63 12
201 37 305 57 209 38 351 71 465 108 99 32 122 33 118 4z m-8895 -92 c89 -35
297 -120 462 -188 165 -69 554 -225 865 -348 311 -122 756 -299 989 -392 233
-93 492 -191 575 -218 370 -119 436 -140 450 -140 20 0 38 -35 34 -65 l-3 -25
-190 64 c-250 84 -465 167 -825 316 -449 187 -546 226 -925 373 -862 335 -925
357 -900 318 6 -11 247 -107 585 -234 278 -105 392 -150 1100 -439 554 -226
1001 -397 1109 -424 60 -14 86 -35 96 -76 6 -22 4 -28 -9 -28 -20 0 -202 73
-526 210 -817 346 -1679 685 -2200 865 -184 64 -368 133 -615 233 -220 89
-220 90 -223 122 -3 28 -1 32 15 25 10 -4 63 -25 118 -45 55 -21 143 -54 195
-73 55 -22 98 -33 103 -28 16 16 -113 71 -337 146 -54 18 -102 39 -107 46 -9
15 -12 69 -4 69 3 0 78 -29 168 -64z m8916 11 c15 -43 6 -66 -28 -73 -14 -3
-66 -17 -116 -30 -146 -39 -296 -70 -642 -134 -946 -175 -935 -173 -2533 -615
-932 -258 -1055 -290 -1555 -400 -236 -52 -466 -104 -510 -115 -44 -11 -87
-20 -96 -20 -18 0 -46 78 -32 90 4 4 114 28 243 54 423 85 689 149 2235 542
182 46 503 125 715 175 357 84 1036 251 1210 298 507 135 827 214 951 232 30
4 66 13 80 18 47 19 67 13 78 -22z m24 -112 c1 -6 -11 -11 -28 -13 -29 -2 -29
-2 -10 13 20 16 35 16 38 0z m-893 -195 c0 -5 -12 -12 -27 -16 -29 -6 -206
-51 -403 -103 -63 -16 -194 -50 -290 -75 -96 -25 -245 -64 -330 -86 -85 -22
-306 -79 -490 -126 -469 -120 -718 -188 -1150 -314 -334 -96 -699 -196 -1110
-303 -74 -19 -200 -51 -280 -72 -80 -21 -210 -55 -290 -77 -80 -22 -161 -43
-181 -45 -36 -5 -37 -4 -54 47 -9 28 -13 55 -9 59 5 5 52 15 104 24 562 92
958 185 1780 417 348 98 992 275 1275 351 436 116 892 224 1145 270 69 12 163
30 210 39 47 10 88 18 93 19 4 0 7 -3 7 -9z"/>
<path d="M5985 11143 c-310 -14 -658 -62 -975 -135 -275 -63 -490 -132 -490
-157 0 -16 20 -13 96 14 254 90 653 173 1059 220 324 38 975 28 1280 -20 412
-64 988 -209 1128 -282 83 -44 161 -112 188 -165 39 -76 20 -188 -41 -243
l-22 -20 -16 25 c-78 123 -261 210 -624 299 -466 114 -823 159 -1313 168 -515
9 -869 -28 -1321 -137 -385 -93 -590 -194 -656 -323 l-20 -39 -29 28 c-69 66
-107 207 -66 248 9 10 17 21 17 25 0 9 92 67 160 101 25 12 49 29 53 37 5 7
12 11 17 8 13 -8 100 31 100 44 0 6 -7 11 -15 11 -23 0 -95 -31 -95 -41 0 -5
-7 -9 -16 -9 -9 0 -49 -16 -89 -35 -124 -59 -200 -162 -180 -242 27 -109 102
-202 240 -298 247 -172 484 -260 850 -315 77 -11 190 -28 250 -37 93 -14 195
-16 655 -15 672 2 866 15 1140 73 52 11 128 27 168 34 40 8 81 19 90 24 9 5
53 18 97 30 89 24 268 89 361 131 57 26 173 95 184 109 3 4 23 20 45 36 95 70
135 140 135 233 0 148 -123 266 -362 348 -228 78 -782 199 -1089 238 -235 30
-610 43 -894 29z m2023 -663 c3 0 3 -3 0 -6 -7 -6 -78 22 -78 31 0 3 16 -2 36
-10 20 -8 39 -15 42 -15z"/>
<path d="M7875 9796 c-40 -17 -65 -56 -65 -102 0 -53 53 -104 108 -104 80 0
124 80 82 148 -17 27 -74 73 -90 72 -3 -1 -19 -7 -35 -14z m56 -37 c53 -28 38
-109 -19 -109 -16 0 -33 5 -40 12 -19 19 -14 65 10 88 25 23 24 23 49 9z"/>
<path d="M6918 9575 c-34 -19 -44 -63 -23 -104 48 -94 201 -74 198 25 -2 77
-98 120 -175 79z m100 -41 c42 -29 17 -82 -33 -70 -28 7 -51 46 -42 70 8 20
46 20 75 0z"/>
<path d="M6358 9488 c-7 -14 -14 -86 -18 -178 -5 -125 -10 -162 -26 -190 l-19
-35 -6 110 c-7 126 -31 197 -73 216 -20 10 -30 9 -51 -5 -37 -25 -33 -67 25
-216 28 -71 50 -141 50 -156 0 -29 -48 -120 -58 -110 -3 3 -6 45 -6 93 -1 78
-5 96 -34 155 -33 67 -72 107 -125 127 -22 9 -27 8 -27 -4 0 -8 7 -15 15 -15
27 0 103 -88 123 -143 23 -63 37 -147 24 -147 -5 0 -12 17 -16 38 -3 21 -19
65 -36 97 -30 61 -125 180 -143 180 -5 0 -18 -11 -29 -25 -17 -23 -17 -29 -4
-75 17 -56 45 -101 129 -210 80 -102 85 -135 28 -210 -54 -71 -66 -72 -62 -5
3 48 -38 180 -72 233 -40 63 -82 96 -132 104 -45 7 -65 -10 -65 -56 0 -50 22
-89 115 -210 136 -175 137 -175 73 -266 -39 -54 -43 -57 -46 -35 -18 169 -107
323 -203 351 -63 19 -87 -2 -75 -66 6 -31 60 -111 179 -265 38 -50 47 -70 47
-102 0 -21 -5 -48 -10 -59 -15 -27 -40 -24 -40 4 0 13 -10 52 -22 88 -17 52
-33 76 -88 130 -74 75 -131 101 -175 81 -73 -33 -21 -147 138 -305 124 -124
119 -105 67 -250 -21 -58 -30 -101 -28 -129 5 -68 23 -55 41 30 17 76 74 210
104 244 10 11 39 19 84 24 38 4 69 11 69 17 0 6 -26 8 -71 4 -69 -6 -71 -5
-54 13 22 24 54 36 147 55 151 30 292 13 319 -37 24 -44 -20 -51 -213 -34 -61
6 -98 5 -98 -1 0 -11 169 -33 251 -33 106 0 132 61 49 117 -32 20 -56 27 -116
31 -75 5 -208 -11 -250 -30 -13 -6 -30 -8 -39 -4 -14 5 -14 9 -1 33 40 79 97
90 323 67 134 -14 167 -15 192 -4 59 24 48 90 -22 126 -63 33 -206 30 -325 -8
-19 -5 -36 -7 -39 -4 -12 12 40 74 76 91 42 18 55 18 343 -1 82 -6 102 -4 123
10 36 24 34 67 -5 99 -62 53 -209 57 -345 10 -25 -8 -49 -12 -52 -9 -4 3 6 20
22 36 39 41 112 64 183 56 186 -18 228 -19 260 -2 19 10 34 27 38 43 21 81
-96 106 -275 59 -85 -22 -108 -22 -78 1 6 5 78 36 160 67 193 76 247 119 212
173 -16 23 -21 25 -70 20 -56 -6 -112 -30 -178 -78 -22 -16 -44 -29 -48 -29
-4 0 3 24 16 53 48 101 56 224 19 262 -23 22 -61 19 -76 -7z m60 -71 c3 -49
-18 -139 -45 -190 -8 -16 -16 -27 -17 -25 -6 7 11 245 18 256 4 7 15 12 24 10
13 -2 18 -16 20 -51z m-198 -37 c45 -24 82 -290 40 -290 -6 0 -10 8 -10 17 0
9 -18 63 -40 119 -43 109 -47 133 -28 152 15 15 15 15 38 2z m-228 -137 c63
-68 128 -198 128 -256 -1 -29 -2 -30 -12 -12 -6 11 -37 56 -69 100 -60 84 -89
140 -89 175 0 27 11 25 42 -7z m538 -37 c-52 -29 -97 -52 -99 -50 -20 18 118
102 169 104 17 0 -4 -16 -70 -54z m150 31 c0 -8 -10 -23 -22 -34 -26 -22 -245
-119 -253 -111 -7 7 152 113 205 137 53 24 70 26 70 8z m-265 -98 c-3 -8 -19
-22 -35 -31 l-30 -17 16 25 c16 23 45 46 52 40 1 -2 0 -9 -3 -17z m-495 -223
c25 -57 42 -106 35 -106 -6 0 -144 189 -159 219 -10 18 -15 39 -12 47 9 23
104 -90 136 -160z m-42 134 c7 -21 -20 -6 -37 21 l-16 24 24 -16 c14 -9 27
-22 29 -29z m62 -67 c34 -53 50 -103 49 -148 0 -26 -3 -23 -18 21 -9 27 -31
74 -49 102 -18 29 -32 57 -32 62 0 23 23 7 50 -37z m690 26 c11 -6 9 -8 -10
-9 -34 0 -70 11 -70 21 0 9 56 1 80 -12z m-6 -25 c24 -9 19 -23 -11 -35 -28
-10 -278 -1 -267 10 22 23 234 42 278 25z m-925 -119 c83 -42 161 -181 161
-284 l0 -46 -24 41 c-12 22 -54 81 -92 130 -39 49 -78 101 -87 116 -34 54 -15
73 42 43z m834 -41 c43 -21 52 -38 30 -60 -15 -14 -30 -16 -108 -9 -49 4 -144
10 -210 14 l-120 6 34 22 c19 12 64 27 100 32 36 6 77 13 91 15 47 8 147 -3
183 -20z m-935 -221 c54 -57 152 -196 152 -217 0 -21 -35 7 -103 82 -81 90
-137 168 -137 190 0 25 24 10 88 -55z m39 28 c36 -26 103 -112 103 -133 0 -18
-19 -6 -46 30 -16 20 -48 58 -73 85 -50 53 -43 61 16 18z m732 -3 c40 -15 18
-18 -48 -7 -59 11 -95 8 -245 -19 -19 -3 -27 -1 -22 6 5 9 88 26 176 35 42 5
106 -2 139 -15z m-344 -38 c-3 -5 -11 -10 -16 -10 -6 0 -7 5 -4 10 3 6 11 10
16 10 6 0 7 -4 4 -10z m343 -5 c57 -17 66 -31 26 -41 -24 -6 -338 25 -331 33
3 2 24 7 48 12 73 14 201 12 257 -4z m-614 -121 c5 -14 4 -15 -9 -4 -17 14
-19 20 -6 20 5 0 12 -7 15 -16z"/>
<path d="M5039 9381 c-20 -20 -29 -39 -29 -61 0 -77 110 -121 165 -65 36 35
35 105 -1 134 -41 32 -98 28 -135 -8z m89 -17 c12 -8 22 -25 22 -36 0 -25 -27
-58 -47 -58 -18 0 -53 36 -53 55 0 16 34 55 48 55 4 0 18 -7 30 -16z"/>
<path d="M4512 9237 c-46 -49 -10 -130 58 -130 37 0 80 38 80 71 0 13 -13 37
-29 53 -37 36 -79 38 -109 6z m86 -61 c-6 -40 -68 -27 -68 15 0 10 8 22 17 28
23 13 55 -15 51 -43z"/>
<path d="M7698 9221 c-29 -26 -33 -35 -33 -81 0 -47 4 -55 37 -85 46 -42 94
-53 141 -30 40 19 57 50 57 108 0 72 -50 117 -129 117 -31 0 -49 -7 -73 -29z
m113 -16 c49 -26 64 -90 29 -125 -35 -35 -92 -22 -118 27 -18 34 -14 62 13 88
28 29 36 30 76 10z"/>
<path d="M5075 8540 c-47 -52 -3 -140 70 -140 48 0 64 8 81 42 13 25 13 35 3
59 -23 56 -117 80 -154 39z m97 -37 c22 -20 23 -36 3 -53 -22 -18 -64 -4 -71
25 -3 13 -3 29 1 34 10 16 46 13 67 -6z"/>
<path d="M6775 8320 c-69 -34 -93 -101 -59 -160 40 -66 133 -84 184 -35 39 37
47 83 26 140 -12 31 -26 48 -50 59 -44 20 -53 20 -101 -4z m99 -52 c52 -74
-45 -158 -111 -96 -31 29 -29 54 6 89 37 36 83 39 105 7z"/>
<path d="M8303 9943 c-46 -9 -21 -21 55 -25 83 -5 121 -20 166 -65 73 -72 97
-229 56 -364 -25 -84 -94 -225 -155 -319 -138 -212 -159 -249 -115 -200 62 69
144 198 212 330 101 201 128 330 92 450 -43 146 -164 221 -311 193z"/>
<path d="M8692 9908 c-7 -7 -12 -21 -12 -33 0 -12 5 -26 12 -33 7 -7 21 -12
33 -12 43 0 59 44 27 73 -22 20 -43 22 -60 5z"/>
<path d="M8752 9724 c-44 -31 -13 -114 43 -114 12 0 31 9 43 20 61 57 -17 142
-86 94z"/>
<path d="M8752 9498 c-7 -7 -12 -21 -12 -33 0 -44 60 -63 80 -26 14 27 13 37
-6 55 -18 19 -45 21 -62 4z"/>
<path d="M8670 9290 c-26 -48 25 -89 63 -51 18 17 19 24 9 46 -14 31 -56 34
-72 5z"/>
<path d="M8576 9141 c-25 -28 -5 -63 32 -59 30 3 42 39 22 64 -17 19 -34 18
-54 -5z"/>
<path d="M8105 8768 c-11 -6 -38 -25 -59 -42 -21 -16 -98 -67 -170 -111 -77
-48 -132 -89 -134 -100 -6 -27 38 -12 121 41 141 91 345 270 242 212z"/>
<path d="M3909 8603 c-50 -43 -107 -87 -127 -98 -21 -11 -39 -21 -41 -23 -3
-1 0 -7 7 -14 19 -19 71 11 148 83 39 37 90 77 113 88 42 22 47 41 11 41 -11
0 -60 -35 -111 -77z"/>
<path d="M4245 8580 c-3 -6 1 -7 9 -4 18 7 21 14 7 14 -6 0 -13 -4 -16 -10z"/>
<path d="M4080 8490 c-8 -5 -12 -11 -9 -14 3 -3 14 1 25 9 21 16 8 20 -16 5z"/>
<path d="M4035 8460 c-3 -5 -2 -10 4 -10 5 0 13 5 16 10 3 6 2 10 -4 10 -5 0
-13 -4 -16 -10z"/>
<path d="M3974 8421 c-47 -34 -81 -71 -66 -71 12 0 105 77 110 91 6 14 -3 11
-44 -20z"/>
<path d="M3627 8368 c-8 -18 -21 -62 -27 -98 -6 -35 -18 -77 -26 -92 -18 -34
-11 -52 15 -38 25 13 38 51 50 140 7 56 15 79 31 92 26 21 25 28 -4 28 -17 0
-28 -9 -39 -32z"/>
<path d="M3867 8322 c-26 -28 -22 -52 4 -25 12 11 20 26 17 33 -2 7 -9 5 -21
-8z"/>
<path d="M8709 8281 c-23 -18 -24 -26 -30 -188 -6 -174 -13 -207 -50 -218 -18
-6 -19 -9 -7 -21 21 -22 45 -8 68 42 18 36 22 68 27 196 4 101 10 162 20 181
16 32 5 35 -28 8z"/>
<path d="M3816 8241 c-10 -18 -16 -55 -16 -94 0 -52 6 -76 32 -128 42 -84 177
-221 275 -278 147 -87 472 -209 674 -255 64 -14 124 -29 134 -32 12 -5 16 -3
13 6 -2 7 -28 19 -58 27 -100 25 -565 185 -638 218 -170 79 -307 201 -368 328
-39 82 -50 140 -35 192 13 49 7 56 -13 16z"/>
<path d="M3566 8065 c-9 -26 29 -110 83 -183 57 -77 72 -111 64 -141 -6 -23 6
-28 25 -9 26 26 12 67 -63 179 -47 72 -75 124 -75 142 0 29 -24 38 -34 12z"/>
<path d="M8300 7738 c-523 -382 -1029 -545 -1788 -574 -95 -4 -175 -11 -179
-17 -10 -16 556 -2 672 17 260 43 593 139 838 243 114 48 262 132 337 191 80
63 190 164 190 173 0 15 -13 9 -70 -33z"/>
<path d="M8473 7740 c-27 -12 -88 -65 -165 -143 -126 -128 -181 -168 -201
-148 -18 18 -29 13 -25 -11 2 -19 9 -23 39 -22 49 1 111 45 234 164 122 118
139 130 187 130 46 0 49 14 8 35 -35 18 -26 19 -77 -5z"/>
<path d="M3805 7679 c-4 -5 -4 -21 -1 -34 6 -25 42 -45 244 -136 52 -23 78
-41 88 -61 16 -32 29 -36 38 -12 8 20 -15 58 -48 79 -13 8 -70 34 -127 56
-108 42 -169 80 -169 105 0 16 -16 19 -25 3z"/>
<path d="M5268 7589 c-24 -14 -23 -28 2 -22 25 7 49 33 29 33 -8 0 -22 -5 -31
-11z"/>
<path d="M6225 7500 c3 -5 21 -10 38 -9 27 0 29 2 12 9 -28 12 -57 12 -50 0z"/>
<path d="M4260 7402 c0 -59 67 -84 294 -112 167 -20 205 -32 221 -68 18 -40
52 -22 41 23 -10 38 -78 64 -202 75 -274 25 -332 43 -325 98 1 6 -5 12 -14 12
-10 0 -15 -9 -15 -28z"/>
<path d="M7828 7342 c-40 -21 -121 -64 -179 -95 -125 -67 -245 -103 -270 -81
-18 16 -29 9 -29 -17 0 -29 42 -33 125 -10 78 22 124 43 320 145 100 53 114
57 158 52 48 -5 61 6 35 32 -23 23 -85 13 -160 -26z"/>
<path d="M5273 7344 c32 -9 61 -14 64 -10 12 12 -5 17 -63 21 l-59 5 58 -16z"/>
<path d="M5377 7330 c6 -7 36 -15 65 -17 66 -5 46 12 -27 22 -40 6 -48 5 -38
-5z"/>
<path d="M5508 7308 c11 -11 128 -34 242 -48 143 -18 717 -25 840 -10 189 21
146 28 -155 23 -295 -6 -562 4 -817 30 -65 7 -114 9 -110 5z"/>
<path d="M4951 7212 c-23 -43 20 -82 109 -98 25 -4 142 -8 262 -8 l216 -1 47
-33 c26 -18 50 -30 53 -27 13 13 -25 61 -63 80 -36 18 -67 21 -280 26 -142 3
-251 10 -266 16 -14 6 -35 24 -46 39 l-20 28 -12 -22z"/>
<path d="M7045 7149 c-27 -6 -99 -26 -158 -45 -122 -39 -265 -74 -303 -74 -17
0 -28 7 -31 20 -3 11 -11 20 -18 20 -20 0 -25 -26 -10 -47 25 -34 118 -23 310
37 124 38 192 54 251 57 76 5 81 4 87 -16 6 -25 32 -28 41 -4 17 44 -71 71
-169 52z"/>
<path d="M6165 7103 c-338 -74 -420 -81 -408 -32 6 22 -9 25 -26 5 -16 -19 -3
-46 26 -57 42 -16 114 -10 258 21 162 35 242 45 280 36 23 -6 26 -11 21 -31
-7 -29 14 -35 34 -10 17 20 3 54 -27 66 -24 9 -120 11 -158 2z"/>
<path d="M8255 6820 c-11 -4 -53 -20 -92 -35 -40 -16 -73 -32 -73 -37 0 -4 -8
-8 -19 -8 -10 0 -40 -9 -67 -21 -27 -11 -58 -24 -69 -29 -11 -4 -28 -11 -37
-14 -17 -5 -26 -36 -10 -36 7 0 126 47 185 74 18 8 63 26 101 41 38 15 77 31
85 35 9 5 24 11 34 14 9 3 17 10 17 16 0 12 -27 12 -55 0z"/>
<path d="M7802 6629 c2 -6 8 -10 13 -10 5 0 11 4 13 10 2 6 -4 11 -13 11 -9 0
-15 -5 -13 -11z"/>
<path d="M7757 6613 c-12 -11 -8 -23 8 -23 8 0 15 7 15 15 0 16 -12 20 -23 8z"/>
<path d="M7511 6517 c-58 -23 -107 -48 -109 -56 -7 -20 35 -10 141 34 50 22
87 43 87 51 0 19 -1 19 -119 -29z"/>
<path d="M9755 7157 c-27 -11 -495 -204 -1040 -428 -1381 -568 -1352 -556
-1337 -571 7 -7 189 61 579 217 530 213 1764 724 1832 760 17 8 31 22 31 30 0
19 -3 18 -65 -8z"/>
<path d="M3193 5605 c0 -10 6 -14 14 -10 8 3 17 5 19 5 2 0 4 5 4 10 0 6 -8
10 -18 10 -10 0 -19 -7 -19 -15z"/>
<path d="M3280 5577 c0 -8 21 -23 48 -35 426 -188 543 -235 555 -223 6 6 9 13
6 15 -4 5 -142 66 -423 187 -165 72 -186 78 -186 56z"/>
<path d="M3900 5315 c0 -14 48 -45 70 -45 26 0 2 34 -32 46 -32 11 -38 11 -38
-1z"/>
<path d="M4005 5270 c-9 -15 -12 -13 69 -49 63 -29 86 -32 86 -12 0 7 -64 38
-136 68 -7 2 -15 -1 -19 -7z"/>
<path d="M4180 5186 c0 -12 66 -46 90 -46 26 0 5 30 -30 44 -49 20 -60 20 -60
2z"/>
<path d="M2270 5205 c0 -6 138 -75 151 -75 20 0 8 21 -18 31 -16 6 -46 20 -69
30 -40 18 -64 24 -64 14z"/>
<path d="M4375 4930 c-5 -9 83 -60 105 -60 28 0 4 29 -40 48 -58 25 -57 25
-65 12z"/>
<path d="M4527 4863 c-11 -10 13 -33 34 -33 22 0 24 11 7 28 -13 13 -31 16
-41 5z"/>
<path d="M4590 4832 c0 -14 23 -32 42 -32 24 0 23 17 -1 30 -23 12 -41 13 -41
2z"/>
<path d="M4225 4590 c-7 -11 54 -52 67 -44 15 10 8 24 -22 39 -34 18 -37 18
-45 5z"/>
<path d="M4350 4525 c0 -8 7 -15 15 -15 8 0 15 7 15 15 0 8 -7 15 -15 15 -8 0
-15 -7 -15 -15z"/>
<path d="M4397 4513 c-8 -7 11 -33 25 -33 6 0 43 -16 84 -35 83 -40 84 -40 84
-22 0 7 -40 32 -90 55 -98 46 -94 45 -103 35z"/>
<path d="M4525 4321 c38 -24 67 -30 72 -14 5 15 -37 33 -75 33 l-27 0 30 -19z"/>
<path d="M4610 4290 c0 -5 7 -10 15 -10 8 0 15 5 15 10 0 6 -7 10 -15 10 -8 0
-15 -4 -15 -10z"/>
<path d="M4615 4181 c-5 -10 2 -16 44 -38 30 -16 41 -16 41 0 0 7 -16 21 -35
30 -42 20 -42 20 -50 8z"/>
<path d="M5942 3080 c-37 -9 -60 -26 -49 -36 12 -12 117 18 117 33 0 14 -17
15 -68 3z"/>
<path d="M2670 3785 c0 -15 27 -28 41 -19 13 8 3 21 -21 27 -12 3 -20 0 -20
-8z"/>
<path d="M5296 2862 c-3 -6 -1 -14 5 -17 15 -10 25 3 12 16 -7 7 -13 7 -17 1z"/>
<path d="M2230 3606 c0 -9 55 -36 143 -71 590 -238 1553 -617 1957 -770 91
-34 297 -113 459 -175 195 -74 297 -108 303 -102 13 13 2 32 -17 32 -8 0 -108
38 -222 84 -209 84 -930 364 -1378 536 -132 51 -462 179 -734 286 -271 107
-497 194 -502 194 -5 0 -9 -6 -9 -14z"/>
<path d="M2326 3252 c-13 -12 -4 -21 38 -37 42 -16 73 -14 61 5 -7 11 -92 39
-99 32z"/>
<path d="M2442 3198 c3 -7 13 -15 22 -16 12 -3 17 1 14 10 -3 7 -13 15 -22 16
-12 3 -17 -1 -14 -10z"/>
<path d="M2505 3180 c-4 -6 -3 -14 0 -20 9 -15 35 -12 35 4 0 17 -27 29 -35
16z"/>
</g>
</svg>
